<?xml version="1.0" standalone="no"?><!DOCTYPE svg PUBLIC "-//W3C//DTD SVG 1.1//EN" "http://www.w3.org/Graphics/SVG/1.1/DTD/svg11.dtd"><svg t="1572330160495" class="icon" viewBox="0 0 1025 1024" version="1.1" xmlns="http://www.w3.org/2000/svg" p-id="5940" xmlns:xlink="http://www.w3.org/1999/xlink" width="200.1953125" height="200" fill="#fff"><defs><style type="text/css"></style></defs><path d="M982.272 227.5328l-25.9584 25.088c-22.4768-16.4352-49.2544-25.088-77.824-25.088-36.3008 0-69.9904 14.6944-95.0784 38.912-47.5648 46.6944-52.736 119.296-16.4352 172.9536l-12.0832 12.0832-47.616-48.4352a38.1952 38.1952 0 0 0-24.1664-10.3424 34.1504 34.1504 0 0 0-24.2176 10.3424l-129.6896 127.1296a34.6624 34.6624 0 0 0-10.3936 24.2176 32.768 32.768 0 0 0 10.3936 24.2176l47.5648 47.5136-14.7456 15.5648-14.6944-14.6944a24.1664 24.1664 0 0 0-17.2544-6.912l-87.3472-0.8704c-6.912 0.8704-13.0048 2.6112-17.3056 6.912l-62.2592 62.2592a24.1664 24.1664 0 0 0-6.912 17.3056l-0.8704 88.2176c0 6.912 2.56 12.9536 6.912 17.3056l13.824 13.824-146.944 145.2544a24.1664 24.1664 0 0 0-6.9632 17.3056c0 12.9536 11.264 24.2176 24.2176 24.2176 6.912 0 12.9536-2.6112 17.3056-6.912l146.9952-145.3056 13.824 13.824a24.1664 24.1664 0 0 0 17.3056 6.9632l88.2176 0.8192c6.0416 0 12.0832-2.56 17.2544-6.912l62.2592-62.2592a24.1664 24.1664 0 0 0 6.912-17.2544l0.8704-88.2176a24.1664 24.1664 0 0 0-6.912-17.3056l-13.824-13.824 14.6944-14.6944 46.6944 47.5648a38.1952 38.1952 0 0 0 24.2176 10.3424 31.9488 31.9488 0 0 0 23.3472-9.472l129.6896-127.1296a38.1952 38.1952 0 0 0 10.3936-24.2176 32.768 32.768 0 0 0-10.3936-24.2176l-45.824-47.5136 12.0832-12.1344a136.3456 136.3456 0 0 0 172.9536-14.6944 134.2464 134.2464 0 0 0 16.4352-172.032l25.9584-25.9584a23.5008 23.5008 0 0 0 0-33.792 24.576 24.576 0 0 0-34.6112 0z m-650.24 507.5456a22.3232 22.3232 0 0 0 2.56-18.1248l-21.5552-84.736a23.7056 23.7056 0 0 0-11.264-14.6944l-17.3056-10.3936 11.264-19.0464 57.0368 33.7408a32.768 32.768 0 0 0 46.6944-12.0832l93.3888-155.648c10.3936-16.4352 4.352-36.352-11.264-46.6944l-57.0368-33.7408 7.7824-12.9536c15.5648 6.0416 31.1296 8.6528 47.5648 8.6528 47.5648 0 92.5184-25.088 115.8656-65.7408a136.704 136.704 0 0 0-26.7776-171.2128l18.9952-32a24.1152 24.1152 0 0 0-8.6528-32.8192 23.8592 23.8592 0 0 0-32.8704 7.7824l-18.9952 31.9488a128.6144 128.6144 0 0 0-47.5648-8.6016c-46.6944 0-91.648 25.088-115.8656 65.6896a136.704 136.704 0 0 0 26.8288 171.2128l-8.704 12.9536-57.0368-34.56a31.1808 31.1808 0 0 0-17.3056-5.2224 33.7408 33.7408 0 0 0-29.3888 16.4352l-93.3888 155.648a30.6176 30.6176 0 0 0-3.4304 25.9584c2.56 8.6528 7.7824 16.384 15.5648 20.736l57.9072 34.6112-11.264 18.9952-17.2544-9.5232a22.3232 22.3232 0 0 0-18.176-2.56l-85.6064 21.6064a23.7056 23.7056 0 0 0-14.6944 11.264l-44.9536 75.2128a22.3232 22.3232 0 0 0-2.56 18.1248l21.5552 85.6064c1.7408 6.0928 5.2224 11.264 11.264 14.7456l16.384 9.472-106.2912 178.176A19.8656 19.8656 0 0 0 0 995.328c0 12.9536 11.264 24.2176 24.2176 24.2176 8.6528 0 16.384-4.352 20.736-11.264l105.472-178.1248 17.3056 10.3936c3.4816 2.56 7.7824 3.4304 12.1344 3.4304 2.56 0 3.4304 0 6.0416-0.8704l85.6064-21.6064a25.3952 25.3952 0 0 0 15.5648-11.264l44.9536-75.2128z" p-id="5941"></path></svg>