<?xml version="1.0" standalone="no"?><!DOCTYPE svg PUBLIC "-//W3C//DTD SVG 1.1//EN" "http://www.w3.org/Graphics/SVG/1.1/DTD/svg11.dtd"><svg t="1572330086310" class="icon" viewBox="0 0 1024 1024" version="1.1" xmlns="http://www.w3.org/2000/svg" p-id="2620" xmlns:xlink="http://www.w3.org/1999/xlink" fill="#fff" width="200" height="200"><defs><style type="text/css"></style></defs><path d="M877.116962 967.652915a21.331796 21.331796 0 0 0-23.720957-4.437013A211.355431 211.355431 0 0 1 767.898168 981.262601a213.445947 213.445947 0 0 1-195.228594-127.990774H362.59405a21.331796 21.331796 0 0 1-21.331795-21.331796v-255.981548a21.331796 21.331796 0 0 1 21.331795-21.331796h383.972322c2.517152 0 4.863649 0.639954 7.12482 1.450562 4.778322-0.341309 9.343327-1.450562 14.206976-1.450562 33.874892 0 66.512539 7.935428 96.889016 23.550303a21.331796 21.331796 0 0 0 31.059094-18.985298V511.963096h107.512251a21.331796 21.331796 0 0 0 11.135197-39.549149l-118.604784-118.604784V21.331796a21.331796 21.331796 0 0 0-21.331796-21.331796h-170.654365a21.331796 21.331796 0 0 0-21.331796 21.331796v119.15941L563.368911 21.331796c-27.219371-27.304698-75.685211-27.347362-102.904582 0L6.225072 475.571053A21.289132 21.289132 0 0 0 21.28532 511.963096h106.658978v490.6313a21.331796 21.331796 0 0 0 21.331796 21.331796h725.281052a21.331796 21.331796 0 0 0 21.331796-21.331796v-7.338137a21.50245 21.50245 0 0 0-6.228884-15.102912l-12.543096-12.500432z m25.043528-95.609108A168.777167 168.777167 0 0 0 938.552533 767.944644c0-94.115882-76.538483-170.654365-170.654365-170.654365s-170.654365 76.538483-170.654365 170.654365 76.538483 170.654365 170.654365 170.654365c39.378495 0 75.215912-13.950994 104.099163-36.392043l115.490342 115.490342a21.246468 21.246468 0 0 0 30.205822 0 21.331796 21.331796 0 0 0 0-30.163159l-115.533005-115.490342zM767.898168 895.935418c-70.56558 0-127.990774-57.425194-127.990774-127.990774s57.425194-127.990774 127.990774-127.990774 127.990774 57.425194 127.990774 127.990774-57.425194 127.990774-127.990774 127.990774z" p-id="2621"></path></svg>