<?xml version="1.0" standalone="no"?><!DOCTYPE svg PUBLIC "-//W3C//DTD SVG 1.1//EN" "http://www.w3.org/Graphics/SVG/1.1/DTD/svg11.dtd"><svg t="1572330057745" class="icon" viewBox="0 0 1024 1024" version="1.1" xmlns="http://www.w3.org/2000/svg" p-id="1593" xmlns:xlink="http://www.w3.org/1999/xlink" width="200" height="200" fill="#fff"><defs><style type="text/css"></style></defs><path d="M376.001 589.582l272.001 0-136 123.61L376.001 589.582zM512.001 0.005c-169.665 0-307.201 125.025-307.201 279.266 0 154.25 137.535 279.281 307.201 279.281 169.66 0 307.201-125.03 307.201-279.281C819.202 125.03 681.662 0.005 512.001 0.005zM512.001 496.486c-131.97 0-238.931-97.24-238.931-217.216 0-119.965 106.965-217.211 238.931-217.211 131.94 0 238.931 97.245 238.931 217.211C750.932 399.246 643.942 496.486 512.001 496.486zM512.001 155.155c75.4 0 136.53 55.575 136.53 124.115 0 68.55-61.13 124.125-136.53 124.125-75.405 0-136.535-55.575-136.535-124.125C375.466 210.731 436.606 155.155 512.001 155.155zM968.122 775.782c35.73-23.29 55.88-49.66 55.88-77.6 0-71.84-133.26-133.25-321.841-158.41-0.53 0.32-1.08 0.65-1.63 0.98 150.79 22.3 255.201 70.51 255.201 126.39 0 26.34-23.19 50.96-63.44 72-76.49-28.26-180.951-47.93-298.801-54.22l-0.15 0.12c119.61 6.98 222.401 29.04 287.631 59.69-79.61 37.42-215.141 62.05-368.971 62.05-153.835 0-289.371-24.63-368.976-62.05 65.235-30.65 168.01-52.71 287.636-59.69l-0.145-0.12c-117.87 6.29-222.311 25.96-298.811 54.22-40.26-21.04-63.435-45.66-63.435-72 0-55.88 104.415-104.09 255.196-126.39-0.545-0.33-1.085-0.66-1.635-0.98C133.25 564.932 0 626.342 0 698.182c0 27.94 20.155 54.31 55.865 77.6C20.155 799.042 0 825.402 0 853.332c0 94.24 229.236 170.67 512.001 170.67 282.771 0 512.001-76.43 512.001-170.67C1024.003 825.402 1003.863 799.042 968.122 775.782zM512.001 961.943c-245.061 0-443.731-62.52-443.731-139.64 0-11.12 4.17-21.96 11.995-32.34 90.945 47.42 250.321 78.9 431.736 78.9 181.4 0 340.791-31.48 431.731-78.9 7.84 10.38 12 21.22 12 32.34C955.732 899.422 757.062 961.943 512.001 961.943z" p-id="1594"></path></svg>