<?xml version="1.0" standalone="no"?><!DOCTYPE svg PUBLIC "-//W3C//DTD SVG 1.1//EN" "http://www.w3.org/Graphics/SVG/1.1/DTD/svg11.dtd"><svg t="1572330271666" class="icon" viewBox="0 0 1024 1024" version="1.1" xmlns="http://www.w3.org/2000/svg" p-id="9295" xmlns:xlink="http://www.w3.org/1999/xlink" width="200" height="200" fill="#fff"><defs><style type="text/css"></style></defs><path d="M804.966 160.036s-18.682 6.313 1.777 25.656a2068.342 2068.342 0 0 1 16.681 18.007L621.046 373.146s-22.912 21.166-54.257-6.82c-30.187-25.523-164.94-139.628-164.94-139.628s-24.833-17.966-47.79 0.876L137.092 405.478 29.885 493.343l-0.03 31.309s8.653 20.034 25.615 6.113C72.504 516.859 378.788 265.65 378.788 265.65L576.62 433.137s17.295 23.649 39.88 4.295c22.722-19.364 364.574-312.51 364.574-312.51s8.14-9.968-19.093-6.553c-4.014 0.563-157.015 41.667-157.015 41.667z" p-id="9296"></path><path d="M967.92 283.607c-12.892 11.06-344.862 295.168-344.862 295.168s-19.666 19.23-47.678 1.838c-35.993-22.338-182.865-154.762-182.865-154.762s-21.909-6.426-32.86 2.555c-10.983 9.016-309.776 254.07-309.776 254.07S29.88 700.288 29.88 718.167v175.411c0 1.838 13.532 36.45 38.482 36.45h902.533s23.245-6.073 23.245-36.45V288.312s-13.23-15.754-26.22-4.705z m-34.416 599.987s-811.689 1.173-830.792 1.173c-19.072 0-29.42-26.45-29.42-27.868V727.69c0-13.66 15.29-27.29 15.29-27.29S354.79 490.497 363.186 483.626c8.371-6.881 25.119-1.961 25.119-1.961s169.221 135.89 195.087 155.356c19.994 15.068 36.45-1.398 36.45-1.398s302.71-258.4 312.555-266.86c9.928-8.447 20.05 3.605 20.05 3.605s-1.178 460.176-1.178 483.38c0.01 23.198-17.766 27.847-17.766 27.847z" p-id="9297"></path></svg>