<?xml version="1.0" standalone="no"?><!DOCTYPE svg PUBLIC "-//W3C//DTD SVG 1.1//EN" "http://www.w3.org/Graphics/SVG/1.1/DTD/svg11.dtd"><svg t="1572330249244" class="icon" viewBox="0 0 1024 1024" version="1.1" xmlns="http://www.w3.org/2000/svg" p-id="8552" xmlns:xlink="http://www.w3.org/1999/xlink" width="200" height="200" fill="#fff"><defs><style type="text/css"></style></defs><path d="M796.9 371.3H735c-0.9-1.9-2.2-3.7-3.7-5.2L520.8 155.6c-3.9-3.9-9.1-6-14.6-5.9-5.5 0.1-10.6 2.5-14.3 6.5L298.7 367.5c-1.1 1.2-2 2.5-2.7 3.8h-62.3c-30 0-54.5 24.4-54.5 54.5v380.5c0 30 24.4 54.5 54.5 54.5h563.2c30 0 54.5-24.4 54.5-54.5V425.7c-0.1-30-24.5-54.4-54.5-54.4zM507.3 198.7l172.6 172.6H349.4l157.9-172.6z m304 607.5c0 8-6.5 14.5-14.5 14.5H233.7c-8 0-14.5-6.5-14.5-14.5V425.7c0-8 6.5-14.5 14.5-14.5h563.2c8 0 14.5 6.5 14.5 14.5v380.5z" p-id="8553"></path><path d="M321 541.9c-40.1 3.4-61 26.7-62.8 69.9 1.3 43.2 22.2 65.8 62.8 67.7 41-1.4 62.1-24 63.4-67.7-1.8-43.7-22.9-67-63.4-69.9z m0 105.9c-15.4-0.5-23.4-12.5-23.8-36 0.4-24 8.4-36.3 23.8-36.7 15.9 0.5 24 12.7 24.5 36.7-0.5 23.6-8.7 35.6-24.5 36z m141.4-102.3h-35c-15.4-0.5-22.9 7.9-22.5 25.2v87.9c0 13.5 6.4 20.2 19.2 20.2 12.3 0 18.5-6.7 18.5-20.2V637h19.8c35.2 0.5 52.9-14.9 52.9-46.1 0-30.2-17.7-45.4-52.9-45.4z m2 59.1h-21.8v-27.4h19.8c9.7 0.5 14.8 5.3 15.2 14.4-0.5 8.2-4.9 12.5-13.2 13z m157.9 42.5h-46.9v-20.9h36.4c10.6 0 16.1-5.3 16.5-15.8 0-10.1-5.5-15.1-16.5-15.1h-36.4v-18.7h44.9c11 0 16.7-5.3 17.2-15.8 0-10.1-5.7-15.1-17.2-15.1h-61.5c-15.4-0.5-22.9 7.9-22.5 25.2V653c-0.4 16.8 7 25.2 22.5 25.2h63.4c11 0 16.7-5.3 17.2-15.8-0.3-10.2-6.1-15.3-17.1-15.3z m131.6-105.2c-11.9 1-18.3 8.2-19.2 21.6V619h-0.7l-33.7-64.1c-4.9-8.6-11.9-13-21.1-13-15 0-22.5 7.7-22.5 23.1v94.4c0 13.5 6.4 20.2 19.2 20.2 12.3 0 18.5-6.7 18.5-20.2v-52.6h0.7l32.4 57.6c3.5 6.2 6.8 10.6 9.9 13 3.1 1.4 7.5 2.2 13.2 2.2 14.5 0 21.8-6.2 21.8-18.7v-97.3c-0.5-14-6.6-21.2-18.5-21.7z" p-id="8554"></path></svg>