<?xml version="1.0" standalone="no"?><!DOCTYPE svg PUBLIC "-//W3C//DTD SVG 1.1//EN" "http://www.w3.org/Graphics/SVG/1.1/DTD/svg11.dtd"><svg t="1572330206866" class="icon" viewBox="0 0 1024 1024" version="1.1" xmlns="http://www.w3.org/2000/svg" p-id="7662" xmlns:xlink="http://www.w3.org/1999/xlink" width="200" height="200" fill="#fff"><defs><style type="text/css"></style></defs><path d="M302.83093333 329.04533333c22.39146667 67.72053333 84.65066667 67.72053333 106.496 0 7.09973333-3.82293333 14.7456-15.29173333 15.83786667-24.576 1.09226667-9.8304 0.54613333-22.9376-9.28426667-22.9376-2.18453333-31.67573333-19.6608-58.43626667-58.9824-58.43626666-38.77546667 0-58.43626667 23.48373333-60.6208 58.43626666-9.8304 0-10.92266667 13.1072-9.28426666 22.9376 1.09226667 9.28426667 8.73813333 20.75306667 15.83786666 24.576z" p-id="7663"></path><path d="M446.464 694.40853333c25.66826667 0 46.96746667-21.2992 46.96746667-46.96746666v-1.6384L675.84 463.39413333c4.9152-4.9152 4.9152-13.1072 0-18.0224-4.9152-4.9152-13.1072-4.9152-18.0224 0l-164.93226667 164.38613334V454.656c0-33.86026667-24.576-62.80533333-58.9824-70.4512l-25.12213333-5.46133333c-21.84533333 43.14453333-83.5584 43.14453333-104.8576 0l-25.12213333 5.46133333c-34.4064 7.09973333-58.9824 36.59093333-58.9824 70.4512v192.78506667c0 25.66826667 20.75306667 46.96746667 46.96746666 46.96746666 0 13.1072 10.37653333 23.48373333 23.48373334 23.48373334h132.7104c13.1072 0 23.48373333-10.92266667 23.48373333-23.48373334z" p-id="7664"></path><path d="M148.82133333 674.74773333c20.20693333 8.73813333 43.14453333-5.46133333 43.14453334-27.8528 0-9.8304-6.00746667-18.0224-15.29173334-21.2992-28.94506667-10.37653333-50.24426667-37.6832-50.24426666-70.4512V200.704c0-41.50613333 33.31413333-74.82026667 74.82026666-74.82026667h622.592c41.50613333 0 74.82026667 33.31413333 74.82026667 74.82026667v354.44053333c0 41.50613333-33.31413333 74.82026667-74.82026667 74.82026667h-247.94453333c-15.29173333 0-27.8528 12.56106667-27.8528 27.8528s12.56106667 27.8528 27.8528 27.8528h248.49066667c72.0896 0 130.52586667-58.43626667 130.52586666-130.52586667V200.704c0-72.0896-58.43626667-130.52586667-130.52586666-130.52586667h-622.592C129.70666667 70.17813333 71.2704 128.6144 71.2704 200.704v354.44053333c-0.54613333 53.52106667 31.67573333 99.39626667 77.55093333 119.6032zM253.67893333 763.22133333H155.92106667c-46.96746667 0-85.1968 38.22933333-85.1968 85.1968v112.50346667h268.15146666v-112.50346667c0-46.96746667-38.22933333-85.1968-85.1968-85.1968zM562.7904 763.22133333H465.57866667c-46.96746667 0-85.1968 38.22933333-85.1968 85.1968v112.50346667H648.53333333v-112.50346667c-0.54613333-46.96746667-38.77546667-85.1968-85.74293333-85.1968zM871.90186667 763.22133333h-97.21173334c-46.96746667 0-85.1968 38.22933333-85.1968 85.1968v112.50346667h268.15146667v-112.50346667c0-46.96746667-38.22933333-85.1968-85.74293333-85.1968z" p-id="7665"></path></svg>